<svg xmlns="http://www.w3.org/2000/svg" width="151" height="155" viewBox="0 0 151 155">
  <g id="Union_1" data-name="Union 1" fill="#0c0b0b">
    <path d="M 75.50009918212891 154.4998016357422 C 65.37738037109375 154.4998016357422 55.55661773681641 152.4646453857422 46.31060028076172 148.4508666992188 C 41.86518096923828 146.5206146240234 37.57939910888672 144.1327362060547 33.57236099243164 141.3535461425781 C 29.60241889953613 138.5999603271484 25.86739921569824 135.4367980957031 22.47107887268066 131.9519195556641 C 19.07809829711914 128.4687042236328 15.99647903442383 124.6346435546875 13.31193923950195 120.5563812255859 C 10.60291957855225 116.4401016235352 8.275738716125488 112.0390777587891 6.395079135894775 107.4755783081055 C 2.483399152755737 97.98165893554688 0.4999991953372955 87.8963623046875 0.4999991953372955 77.49990081787109 C 0.4999991953372955 67.10343933105469 2.483399152755737 57.01814270019531 6.39509916305542 47.5241813659668 C 8.275738716125488 42.96072006225586 10.60291957855225 38.55970001220703 13.3119592666626 34.44338226318359 C 15.99643898010254 30.36522102355957 19.07805824279785 26.53116035461426 22.47115898132324 23.04778099060059 C 25.86739921569824 19.56300163269043 29.60241889953613 16.39984130859375 33.57236099243164 13.64624118804932 C 37.57939910888672 10.86706066131592 41.86518096923828 8.479181289672852 46.31063842773438 6.548940658569336 C 55.55661773681641 2.535160779953003 65.37738037109375 0.5000008344650269 75.50009918212891 0.5000008344650269 C 85.62311553955078 0.5000008344650269 95.44358062744141 2.535160779953003 104.6886825561523 6.548940658569336 C 109.1318359375 8.477800369262695 113.4179229736328 10.86568069458008 117.4278793334961 13.64628124237061 C 121.398681640625 16.40046119689941 125.1333770751953 19.56360054016113 128.5281982421875 23.04782104492188 C 131.923095703125 26.5330810546875 135.0050048828125 30.36712074279785 137.6882629394531 34.44342041015625 C 140.3980865478516 38.5609016418457 142.7249450683594 42.9619026184082 144.6041717529297 47.52413940429688 C 148.5164947509766 57.01744079589844 150.5001983642578 67.10272216796875 150.5001983642578 77.49990081787109 C 150.5001983642578 87.89707946777344 148.5164947509766 97.98236083984375 144.6042175292969 107.4755783081055 C 142.7249450683594 112.0379028320312 140.3980865478516 116.4389038085938 137.688232421875 120.5564193725586 C 135.0049591064453 124.6327438354492 131.9230651855469 128.4667816162109 128.5281524658203 131.9520263671875 C 125.1333770751953 135.4362030029297 121.398681640625 138.5993347167969 117.4278411865234 141.3535614013672 C 113.4179229736328 144.1341247558594 109.1318359375 146.5220031738281 104.6886978149414 148.4508666992188 C 95.44358062744141 152.4646453857422 85.62311553955078 154.4998016357422 75.50009918212891 154.4998016357422 Z M 75.50009918212891 7.500100612640381 C 38.55611801147461 7.500100612640381 8.499999046325684 38.67779922485352 8.499999046325684 77.00040435791016 C 8.499999046325684 115.3225021362305 38.55611801147461 146.4998016357422 75.50009918212891 146.4998016357422 C 112.4440765380859 146.4998016357422 142.5001983642578 115.3225021362305 142.5001983642578 77.00040435791016 C 142.5001983642578 38.67779922485352 112.4440765380859 7.500100612640381 75.50009918212891 7.500100612640381 Z M 56.52896881103516 110.2625045776367 L 58.8784294128418 42.99200820922852 L 119.066291809082 78.77039337158203 L 56.52896881103516 110.2625045776367 Z" stroke="none"/>
    <path d="M 75.50009918212891 153.9998016357422 C 85.55419921875 153.9998016357422 95.30766296386719 151.9785614013672 104.4895782470703 147.9922027587891 C 108.902702331543 146.0764007568359 113.1599197387695 143.7045745849609 117.1428604125977 140.9427032470703 C 121.0874557495117 138.2066955566406 124.7975616455078 135.0644073486328 128.1699981689453 131.6031341552734 C 131.5428161621094 128.1405639648438 134.6047210693359 124.3313980102539 137.2705841064453 120.2815628051758 C 139.9629058837891 116.1906204223633 142.2747344970703 111.8180236816406 144.1419372558594 107.2850799560547 C 148.0292053222656 97.85257720947266 150.0001983642578 87.83139801025391 150.0001983642578 77.49990081787109 C 150.0001983642578 67.16840362548828 148.0292053222656 57.14722061157227 144.1418762207031 47.71456146240234 C 142.2747344970703 43.18178176879883 139.9629058837891 38.80918121337891 137.2706146240234 34.71831893920898 C 134.6047515869141 30.66846084594727 131.5428619384766 26.85930061340332 128.1700744628906 23.39676094055176 C 124.7975616455078 19.93540000915527 121.0874557495117 16.79310035705566 117.1429824829102 14.05716037750244 C 113.1599197387695 11.29522037506104 108.902702331543 8.92340087890625 104.4895629882812 7.007580757141113 C 95.30766296386719 3.021240711212158 85.55419921875 1.000000834465027 75.50009918212891 1.000000834465027 C 65.44629669189453 1.000000834465027 55.69252014160156 3.021240711212158 46.50978088378906 7.007560729980469 C 42.0943603515625 8.924760818481445 37.83745956420898 11.29658126831055 33.85733795166016 14.05710124969482 C 29.91361999511719 16.79248046875 26.20319938659668 19.93484115600586 22.82931900024414 23.39666175842285 C 19.45829963684082 26.85740089416504 16.39669990539551 30.66654014587402 13.72961902618408 34.71824264526367 C 11.03807926177979 38.80800247192383 8.725898742675781 43.18064117431641 6.857398986816406 47.71466064453125 C 2.9707190990448 57.14789962768555 0.9999991655349731 67.16909790039062 0.9999991655349731 77.49990081787109 C 0.9999991655349731 87.83070373535156 2.9707190990448 97.85189819335938 6.857359409332275 107.2850799560547 C 8.725898742675781 111.8191604614258 11.03807926177979 116.1918029785156 13.72957897186279 120.2814788818359 C 16.3967399597168 124.3333206176758 19.45833969116211 128.1424560546875 22.82913970947266 131.6029663085938 C 26.20319938659668 135.0649566650391 29.91361999511719 138.2073211669922 33.85731887817383 140.9427032470703 C 37.83745956420898 143.7032165527344 42.0943603515625 146.0750427246094 46.50970077514648 147.9922027587891 C 55.69252014160156 151.9785614013672 65.44629669189453 153.9998016357422 75.50009918212891 153.9998016357422 M 75.50009918212891 7.000100612640381 C 112.7197799682617 7.000100612640381 143.0001983642578 38.402099609375 143.0001983642578 77.00040435791016 C 143.0001983642578 115.5981979370117 112.7197799682617 146.9998016357422 75.50009918212891 146.9998016357422 C 38.28041839599609 146.9998016357422 7.999999046325684 115.5981979370117 7.999999046325684 77.00040435791016 C 7.999999046325684 38.402099609375 38.28041839599609 7.000100612640381 75.50009918212891 7.000100612640381 M 57.05813598632812 109.4362258911133 L 118.0267181396484 78.73409271240234 L 59.34866333007812 43.85320281982422 L 57.05813598632812 109.4362258911133 M 75.50009918212891 154.9998016357422 C 65.30760192871094 154.9998016357422 55.42020034790039 152.9505004882812 46.11149978637695 148.9095001220703 C 41.63850021362305 146.9673004150391 37.322998046875 144.5634002685547 33.28739929199219 141.764404296875 C 29.28959846496582 138.9915008544922 25.53029823303223 135.8072967529297 22.11299896240234 132.3009033203125 C 18.69659996032715 128.7936248779297 15.59519958496094 124.9344024658203 12.89429950714111 120.831298828125 C 10.16729927062988 116.6876983642578 7.825499057769775 112.2588043212891 5.932799339294434 107.6660995483398 C 1.996199131011963 98.11170196533203 -8.178710686479462e-07 87.96240234375 -8.178710686479462e-07 77.49990081787109 C -8.178710686479462e-07 67.03739929199219 1.996199131011963 56.88809967041016 5.932799339294434 47.33370208740234 C 7.825499057769775 42.74100112915039 10.16729927062988 38.31209945678711 12.89429950714111 34.16849899291992 C 15.59519958496094 30.06540107727051 18.69659996032715 26.20620155334473 22.11299896240234 22.69890022277832 C 25.53029823303223 19.19250106811523 29.28959846496582 16.00830078125 33.28739929199219 13.23540115356445 C 37.322998046875 10.43640041351318 41.63850021362305 8.032501220703125 46.11149978637695 6.090301036834717 C 55.42020034790039 2.049300909042358 65.30760192871094 8.178710686479462e-07 75.50009918212891 8.178710686479462e-07 C 85.69259643554688 8.178710686479462e-07 95.58000183105469 2.049300909042358 104.8878021240234 6.090301036834717 C 109.361701965332 8.032501220703125 113.6763000488281 10.43640041351318 117.7127990722656 13.23540115356445 C 121.7106018066406 16.00830078125 125.4699020385742 19.19250106811523 128.8863220214844 22.69890022277832 C 132.3027038574219 26.20620155334473 135.4049987792969 30.06540107727051 138.1058959960938 34.16849899291992 C 140.8329010009766 38.31209945678711 143.1746978759766 42.74100112915039 145.0664978027344 47.33370208740234 C 149.0039978027344 56.88809967041016 151.0001983642578 67.03739929199219 151.0001983642578 77.49990081787109 C 151.0001983642578 87.96240234375 149.0039978027344 98.11170196533203 145.0664978027344 107.6660995483398 C 143.1746978759766 112.2588043212891 140.8329010009766 116.6876983642578 138.1058959960938 120.831298828125 C 135.4049987792969 124.9344024658203 132.3027038574219 128.7936248779297 128.8863220214844 132.3009033203125 C 125.4699020385742 135.8072967529297 121.7106018066406 138.9915008544922 117.7127990722656 141.764404296875 C 113.6763000488281 144.5634002685547 109.361701965332 146.9673004150391 104.8878021240234 148.9095001220703 C 95.58000183105469 152.9505004882812 85.69259643554688 154.9998016357422 75.50009918212891 154.9998016357422 Z M 75.50009918212891 8.000101089477539 C 38.83139801025391 8.000101089477539 8.999999046325684 38.95380020141602 8.999999046325684 77.00040435791016 C 8.999999046325684 115.0469970703125 38.83139801025391 145.9998016357422 75.50009918212891 145.9998016357422 C 112.1688003540039 145.9998016357422 142.0001983642578 115.0469970703125 142.0001983642578 77.00040435791016 C 142.0001983642578 38.95380020141602 112.1688003540039 8.000101089477539 75.50009918212891 8.000101089477539 Z M 55.99979782104492 111.0887985229492 L 58.40819931030273 42.13080215454102 L 120.1058959960938 78.80670166015625 L 55.99979782104492 111.0887985229492 Z" stroke="none" fill="#707070"/>
  </g>
</svg>
