<svg xmlns="http://www.w3.org/2000/svg" width="109" height="37" viewBox="0 0 109 37">
  <g id="Union_1" data-name="Union 1" fill="#090909">
    <path d="M 108.4999084472656 36.49990844726562 L 0.5000075697898865 36.49990844726562 L 0.5000075697898865 30.49970817565918 L 108.4999084472656 30.49970817565918 L 108.4999084472656 36.49990844726562 Z M 108.4999084472656 21.49960708618164 L 0.5000075697898865 21.49960708618164 L 0.5000075697898865 15.50030708312988 L 108.4999084472656 15.50030708312988 L 108.4999084472656 21.49960708618164 Z M 108.4999084472656 6.500207424163818 L 0.5000075697898865 6.500207424163818 L 0.5000075697898865 0.5000075697898865 L 108.4999084472656 0.5000075697898865 L 108.4999084472656 6.500207424163818 Z" stroke="none"/>
    <path d="M 107.9999084472656 35.99990844726562 L 107.9999084472656 30.99970817565918 L 1.000007510185242 30.99970817565918 L 1.000007510185242 35.99990844726562 L 107.9999084472656 35.99990844726562 M 107.9999084472656 20.99960708618164 L 107.9999084472656 16.00030708312988 L 1.000007510185242 16.00030708312988 L 1.000007510185242 20.99960708618164 L 107.9999084472656 20.99960708618164 M 107.9999084472656 6.000207424163818 L 107.9999084472656 1.000007510185242 L 1.000007510185242 1.000007510185242 L 1.000007510185242 6.000207424163818 L 107.9999084472656 6.000207424163818 M 108.9999084472656 36.99990844726562 L 7.551792805315927e-06 36.99990844726562 L 7.551792805315927e-06 29.99970817565918 L 108.9999084472656 29.99970817565918 L 108.9999084472656 36.99990844726562 Z M 108.9999084472656 21.99960708618164 L 7.551792805315927e-06 21.99960708618164 L 7.551792805315927e-06 15.00030708312988 L 108.9999084472656 15.00030708312988 L 108.9999084472656 21.99960708618164 Z M 108.9999084472656 7.000207424163818 L 7.551792805315927e-06 7.000207424163818 L 7.551792805315927e-06 7.551792805315927e-06 L 108.9999084472656 7.551792805315927e-06 L 108.9999084472656 7.000207424163818 Z" stroke="none" fill="#0c0c0c"/>
  </g>
</svg>
